<?xml version="1.0" encoding="UTF-8"?>
<!-- Generator: visioncortex VTracer -->
<svg id="svg" version="1.1" xmlns="http://www.w3.org/2000/svg" style="display: block;" viewBox="0 0 1602 336"><path d="M0 0 C528.66 0 1057.32 0 1602 0 C1602 110.88 1602 221.76 1602 336 C1073.34 336 544.68 336 0 336 C0 225.12 0 114.24 0 0 Z " transform="translate(0,0)" style="fill: #FEFEFE;"/><path d="M0 0 C158 0 158 0 167 2 C169.71171771 3.06809019 172.22544814 4.13584073 174.8125 5.4375 C175.49828125 5.78240479 176.1840625 6.12730957 176.890625 6.48266602 C182.75562287 9.58923088 187.39390653 13.40883644 192.15625 17.99609375 C193.11079981 18.99107441 194.05797631 19.99315183 195 21 C195.62092529 21.65436035 196.24185059 22.3087207 196.8815918 22.98291016 C201.9106602 28.43704669 205.95813971 34.17277056 209.8125 40.5 C210.37130859 41.38558594 210.93011719 42.27117188 211.50585938 43.18359375 C214.85216939 48.6158634 217.31091719 53.84147437 219 60 C220.33623413 59.9685791 220.33623413 59.9685791 221.69946289 59.93652344 C225.08238565 59.86735465 228.46453144 59.81772909 231.84790039 59.78027344 C233.2975671 59.76045658 234.74715728 59.73339465 236.1965332 59.69824219 C245.63304185 59.47551307 253.83035581 60.30913575 262.89916992 62.99951172 C263.92244385 63.32967285 264.94571777 63.65983398 266 64 C267.20354126 64.38164307 267.20354126 64.38164307 268.43139648 64.77099609 C274.29615804 66.71883071 279.80625706 69.68438385 285 73 C290.08344976 76.8839019 294.61892003 81.11611869 298.375 86.3125 C300.86972368 90.46564795 302.90309337 94.61381136 304.296875 99.26171875 C305.89832539 107.77609668 305.9263519 116.39710057 305 125 C303.34110647 134.85695621 299.73290853 143.92361717 295.24560547 152.81176758 C292.49526973 158.06964159 289.76873679 163.08030147 286.06640625 167.73046875 C285.38449219 168.80941406 284.70257813 169.88835937 284 171 C284.13019531 171.81984375 284.26039063 172.6396875 284.39453125 173.484375 C284.92433594 174.31453125 285.45414062 175.1446875 286 176 C286.49959229 176.79760742 286.49959229 176.79760742 287.00927734 177.61132812 C287.78578607 178.83679275 288.57579242 180.05377406 289.37670898 181.26342773 C295.14629291 190.0075336 299.88901219 198.96660948 303 209 C305.40706895 218.00631502 306.59355939 227.3333136 306.34765625 236.65625 C305.74698493 242.4334933 304.21932651 247.64466864 302 253 C299.47526174 258.26609607 296.39744667 262.83158414 292.4375 267.125 C287.23071213 272.02433944 281.30398165 275.67392743 275 279 C267.13075132 282.70383807 258.63892105 283.9608647 250.08959961 285.13134766 C238.43136802 286.50986476 226.71738871 286.27377076 215 286 C214.42971069 287.07145264 214.42971069 287.07145264 213.84790039 288.16455078 C207.60951651 299.76418287 200.48016404 310.21132707 191.10375977 319.50708008 C186.38522401 323.94623338 181.34291381 327.20786272 175.6796875 330.31640625 C170.90821919 332.49953028 165.93126905 334.20681125 161 336 C107.87 336 54.74 336 0 336 C0 225.12 0 114.24 0 0 Z " transform="translate(0,0)" style="fill: #F36C3F;"/><path d="M0 0 C3.07765677 0.6244453 5.52663488 1.49539064 8.37109375 2.80224609 C9.33684326 3.2435083 10.30259277 3.68477051 11.29760742 4.1394043 C12.31830322 4.61724365 13.33899902 5.09508301 14.390625 5.58740234 C15.45708252 6.08393311 16.52354004 6.58046387 17.62231445 7.09204102 C34.26058287 14.90346381 49.76358721 23.47812937 64.84130859 34.02929688 C67.52112226 35.86810224 70.25979067 37.58690165 73.04614258 39.2590332 C75.73917218 41.19851355 77.96474067 43.19050199 80.203125 45.64990234 C82.7774239 53.28126251 82.30445083 62.21767603 82.43473816 70.18858337 C82.48109434 74.9487538 82.4804404 79.70792583 82.46386719 84.46826172 C82.45306754 88.16959712 82.46385326 91.87045591 82.4765625 95.57177734 C82.47524217 97.94157007 82.4726824 100.31136251 82.46875 102.68115234 C82.47279846 103.77915161 82.47684692 104.87715088 82.48101807 106.00842285 C82.42900309 114.52458724 82.42900309 114.52458724 81.31884766 118.74926758 C80.76656494 120.18508179 80.76656494 120.18508179 80.203125 121.64990234 C76.7338665 125.54801752 72.38941199 128.55046946 68.203125 131.64990234 C67.13795654 132.44557617 67.13795654 132.44557617 66.05126953 133.25732422 C48.96143001 145.91104661 30.68069923 156.11549052 11.640625 165.52490234 C10.58786377 166.0555127 9.53510254 166.58612305 8.45043945 167.1328125 C7.46003662 167.61024902 6.46963379 168.08768555 5.44921875 168.57958984 C4.14488892 169.21743408 4.14488892 169.21743408 2.81420898 169.86816406 C1.95255127 170.1261377 1.09089355 170.38411133 0.203125 170.64990234 C-2.8800104 170.40445756 -5.38315115 169.80583436 -8.27197266 168.71704102 C-9.07683105 168.33781494 -9.88168945 167.95858887 -10.7109375 167.56787109 C-11.62673584 167.13667969 -12.54253418 166.70548828 -13.48608398 166.26123047 C-14.45489502 165.79136719 -15.42370605 165.32150391 -16.421875 164.83740234 C-17.94180054 164.10360352 -17.94180054 164.10360352 -19.49243164 163.35498047 C-35.3803485 155.54925869 -50.56832092 146.19047017 -64.796875 135.64990234 C-66.10060059 134.77108398 -66.10060059 134.77108398 -67.43066406 133.87451172 C-68.21151367 133.14039063 -68.99236328 132.40626953 -69.796875 131.64990234 C-70.63989258 128.88623047 -70.63989258 128.88623047 -70.94140625 125.68115234 C-71.06112793 124.48506348 -71.18084961 123.28897461 -71.30419922 122.05664062 C-71.40490723 120.76741699 -71.50561523 119.47819336 -71.609375 118.14990234 C-71.72653885 116.79425471 -71.84389199 115.43862342 -71.96142578 114.08300781 C-73.55237864 94.75489582 -73.20179141 75.63204901 -71.421875 56.33740234 C-71.3589325 55.64882141 -71.29598999 54.96024048 -71.23114014 54.25079346 C-70.59958913 47.51809168 -69.99018786 41.08420457 -67.796875 34.64990234 C-65.35546875 32.34912109 -65.35546875 32.34912109 -62.234375 30.33740234 C-61.38141846 29.78064819 -61.38141846 29.78064819 -60.51123047 29.21264648 C-58.62287935 27.99639029 -56.71464597 26.81917122 -54.796875 25.64990234 C-54.12575684 25.23804687 -53.45463867 24.82619141 -52.76318359 24.40185547 C-37.44526588 15.0650829 -21.63373098 6.02234738 -4.71484375 -0.10400391 C-2.796875 -0.35009766 -2.796875 -0.35009766 0 0 Z " transform="translate(153.796875,80.35009765625)" style="fill: #FEFEFE;"/><path d="M0 0 C7.51548404 1.75001702 14.59362458 4.36190601 21.265625 8.25390625 C29.84083861 13.93346123 37.10194849 20.58729075 43.7421875 28.44921875 C44.13664062 29.06410156 44.53109375 29.67898437 44.9375 30.3125 C44.9375 31.3025 44.9375 32.2925 44.9375 33.3125 C45.5975 33.3125 46.2575 33.3125 46.9375 33.3125 C50.37694532 40.39263477 53.13614463 47.64081466 54.9375 55.3125 C55.43680718 60.01832174 55.45557508 64.64706237 55.375 69.375 C55.38208984 70.55126953 55.38917969 71.72753906 55.39648438 72.93945312 C55.33079831 82.07992187 53.65946426 90.11122439 50.796875 98.7578125 C47.95239496 105.628634 44.55168621 111.48159126 39.9375 117.3125 C39.29167969 118.14652344 38.64585938 118.98054688 37.98046875 119.83984375 C33.91091536 124.73991824 29.55034203 128.64350296 24.25 132.125 C16.72772813 136.84401677 8.81441376 139.67042116 0.28125 142.0546875 C-8.57293574 144.04961206 -18.04684581 144.03456489 -27.0625 143.3125 C-35.29566709 142.23072994 -42.87728526 139.62936667 -50.375 136.125 C-58.04418452 132.02024329 -64.39476521 127.06983743 -70.4609375 120.85546875 C-74.93042148 115.7681892 -78.35701856 110.37217596 -81.4375 104.375 C-81.92029419 103.44578735 -81.92029419 103.44578735 -82.4128418 102.49780273 C-85.23193092 96.69484832 -86.93803931 90.65705321 -88.0625 84.3125 C-88.47023087 79.84383654 -88.54022688 75.42279751 -88.5 70.9375 C-88.49242676 69.7508374 -88.48485352 68.5641748 -88.47705078 67.34155273 C-88.36050919 61.14570842 -88.03809675 55.3688665 -86.4375 49.375 C-85.71075741 47.32992086 -84.92097756 45.30586895 -84.0625 43.3125 C-83.61519531 42.26320312 -83.16789062 41.21390625 -82.70703125 40.1328125 C-79.62379929 33.50345048 -75.87930687 27.79974037 -71.0625 22.3125 C-70.49144531 21.64734375 -69.92039062 20.9821875 -69.33203125 20.296875 C-64.03947658 14.5642145 -57.75604664 10.12875601 -50.99169922 6.29931641 C-44.80691141 3.13569804 -38.05297469 1.19614531 -31.29296875 -0.30078125 C-21.20431346 -1.5084921 -10.04214872 -1.57932903 0 0 Z " transform="translate(1362.0625,148.6875)" style="fill: #202A38;"/><path d="M0 0 C54 0 54 0 71 3 C74.06902867 3.99990934 76.65765111 4.88144715 79.5 6.25 C80.15814697 6.55373535 80.81629395 6.8574707 81.49438477 7.17041016 C86.9744885 9.79312301 91.55696599 12.88543932 96 17 C96.74507813 17.65484375 97.49015625 18.3096875 98.2578125 18.984375 C103.58034171 23.9280123 107.58937907 29.32549994 111.2734375 35.578125 C113.93563721 40.8543398 115.62123529 46.26683151 117 52 C117.19207031 52.76699219 117.38414062 53.53398437 117.58203125 54.32421875 C119.00006892 63.40231036 118.59035388 73.26582375 117.28222656 82.33740234 C116.2484703 88.26026931 114.52025756 93.71183249 112 99.1875 C107.96669249 106.59596023 103.1069817 113.17647295 97 119 C92.05209388 123.31312143 86.6731429 126.72432749 80.7421875 129.5546875 C73.20223603 132.62517376 66.11215673 134.12796383 58 136 C38.86 136 19.72 136 0 136 C0 91.12 0 46.24 0 0 Z " transform="translate(370,152)" style="fill: #202A38;"/><path d="M0 0 C9.57 0 19.14 0 29 0 C37.03588723 11.4798389 37.03588723 11.4798389 40.8359375 17.296875 C41.26922867 17.9572728 41.70251984 18.61767059 42.14894104 19.29808044 C43.55900913 21.447818 44.96699221 23.59891258 46.375 25.75 C47.36904573 27.26614749 48.36327147 28.78217697 49.35766602 30.2980957 C50.92345722 32.68512071 52.48913924 35.07221652 54.05427551 37.45967102 C60.33723633 47.04314415 66.63779159 56.61503151 72.9375 66.1875 C76.588125 71.735625 80.23875 77.28375 84 83 C84.33 55.61 84.66 28.22 85 0 C94.24 0 103.48 0 113 0 C113 44.88 113 89.76 113 136 C102.77 136 92.54 136 82 136 C72.57854974 124.90362525 72.57854974 124.90362525 70.25 119.68359375 C67.04930344 112.93519638 63.17694836 106.84619968 59.0625 100.625 C57.7292755 98.54539837 56.39986838 96.46334468 55.07421875 94.37890625 C52.27086868 89.98665134 49.46048981 85.59901691 46.64453125 81.21484375 C45.92240249 80.08970805 45.20031549 78.96454556 44.47827148 77.83935547 C43.12078007 75.72441063 41.76229132 73.61010544 40.40258789 71.49658203 C39.78246826 70.52962402 39.16234863 69.56266602 38.5234375 68.56640625 C37.98638184 67.73052979 37.44932617 66.89465332 36.89599609 66.03344727 C34.20374042 61.72604619 31.61341281 57.35568802 29 53 C28.67 80.39 28.34 107.78 28 136 C18.76 136 9.52 136 0 136 C0 91.12 0 46.24 0 0 Z " transform="translate(1437,152)" style="fill: #202A38;"/><path d="M0 0 C2.21855264 -0.08783542 4.43988496 -0.10694609 6.66015625 -0.09765625 C7.65685585 -0.09553383 7.65685585 -0.09553383 8.6736908 -0.09336853 C10.80333899 -0.08775518 12.93288339 -0.07520054 15.0625 -0.0625 C16.50325369 -0.05748671 17.94400903 -0.05292351 19.38476562 -0.04882812 C22.92321102 -0.03778145 26.46159539 -0.02050792 30 0 C40.04424573 25.31116955 50.05848112 50.63315023 59.93746948 76.00932312 C60.25845612 76.83382462 60.57944275 77.65832611 60.91015625 78.5078125 C61.39296555 79.74812981 61.39296555 79.74812981 61.88552856 81.01350403 C64.57841324 87.92724556 67.28595059 94.83519554 69.99609375 101.7421875 C70.83782347 103.88850354 71.67953907 106.03482511 72.52124023 108.18115234 C73.75451341 111.32583436 74.98832663 114.47029863 76.22390747 117.61407471 C77.35908533 120.50255479 78.49224318 123.39181979 79.625 126.28125 C80.13932838 127.58737747 80.13932838 127.58737747 80.66404724 128.91989136 C81.45558244 130.94159704 82.22977122 132.97008142 83 135 C83 135.33 83 135.66 83 136 C72.44 136 61.88 136 51 136 C45.30769231 123.47692308 45.30769231 123.47692308 43.1875 117.9375 C42.76855469 116.85339844 42.34960938 115.76929688 41.91796875 114.65234375 C41.46357422 113.33943359 41.46357422 113.33943359 41 112 C41 111.34 41 110.68 41 110 C23.18 110.33 5.36 110.66 -13 111 C-15.31 116.94 -17.62 122.88 -20 129 C-20.99 131.31 -21.98 133.62 -23 136 C-32.57 136 -42.14 136 -52 136 C-50.01065961 129.36886536 -47.960174 123.01967936 -45.41796875 116.6171875 C-45.08130692 115.75924591 -44.74464508 114.90130432 -44.39778137 114.0173645 C-43.33143984 111.3017491 -42.25976911 108.58827965 -41.1875 105.875 C-39.78333664 102.31061012 -38.38143258 98.74533603 -36.98046875 95.1796875 C-36.63946136 94.31261169 -36.29845398 93.44553589 -35.94711304 92.55218506 C-33.31994241 85.85628799 -30.77674259 79.13167964 -28.2668457 72.39111328 C-26.71781623 68.24464589 -25.11896069 64.11953363 -23.5 60 C-21.29036988 54.34882209 -19.11812963 48.68610201 -17 43 C-14.60046584 36.55846979 -12.12409532 30.14931612 -9.61865234 23.74829102 C-7.29995799 17.81075418 -5.05578742 11.84733811 -2.86523438 5.86132812 C-2.26335456 4.2334025 -1.63430685 2.61556677 -1 1 C-0.67 0.67 -0.34 0.34 0 0 Z " transform="translate(543,152)" style="fill: #212B38;"/><path d="M0 0 C2.21855264 -0.08783542 4.43988496 -0.10694609 6.66015625 -0.09765625 C7.65685585 -0.09553383 7.65685585 -0.09553383 8.6736908 -0.09336853 C10.80333899 -0.08775518 12.93288339 -0.07520054 15.0625 -0.0625 C16.50325369 -0.05748671 17.94400903 -0.05292351 19.38476562 -0.04882812 C22.92321102 -0.03778145 26.46159539 -0.02050792 30 0 C40.68424449 27.00460722 51.29449752 54.03770148 61.86230469 81.08807373 C63.01083074 84.02772124 64.15967401 86.96724461 65.30859375 89.90673828 C67.16805361 94.66432975 69.02683818 99.42218448 70.88504028 104.18026733 C71.57847126 105.95573775 72.27205079 107.73115016 72.96578979 109.50650024 C73.92435213 111.95985052 74.88219913 114.41347888 75.83984375 116.8671875 C76.11715332 117.57657974 76.39446289 118.28597198 76.68017578 119.01686096 C77.200412 120.35070412 77.71855973 121.68536425 78.23434448 123.02093506 C78.77117458 124.4085325 79.3144825 125.79363301 79.86257935 127.17681885 C80.61291033 129.10356154 81.30997162 131.05084767 82 133 C82 133.99 82 134.98 82 136 C71.77 136 61.54 136 51 136 C48.49940096 130.37365215 46.03656576 124.77308133 43.75 119.0625 C43.3478125 118.07540039 43.3478125 118.07540039 42.9375 117.06835938 C42.26399311 115.38974655 41.62886601 113.695842 41 112 C41 111.34 41 110.68 41 110 C23.18 110.33 5.36 110.66 -13 111 C-16.3 119.25 -19.6 127.5 -23 136 C-32.57 136 -42.14 136 -52 136 C-50.02302533 129.41008444 -47.98898778 123.06115351 -45.5078125 116.67578125 C-45.16953934 115.7960112 -44.83126617 114.91624115 -44.48274231 114.0098114 C-43.36679861 111.10942298 -42.24585951 108.21099182 -41.125 105.3125 C-39.92186952 102.18912815 -38.72004628 99.06525511 -37.51823425 95.94137573 C-36.6723208 93.7429068 -35.82596847 91.54460669 -34.97920227 89.34646606 C-31.78946472 81.06375592 -28.61868 72.77393837 -25.45703125 64.48046875 C-24.99592957 63.2711116 -24.53482788 62.06175446 -24.05975342 60.81575012 C-22.24845033 56.06438937 -20.43751024 51.31289095 -18.62774658 46.5609436 C-14.09957092 34.67332333 -9.55348071 22.79286345 -4.94140625 10.9375 C-4.55879135 9.9489502 -4.17617645 8.96040039 -3.78196716 7.94189453 C-3.43054153 7.04196777 -3.07911591 6.14204102 -2.71704102 5.21484375 C-2.40847672 4.42198975 -2.09991241 3.62913574 -1.78199768 2.81225586 C-1.52393845 2.21421143 -1.26587921 1.61616699 -1 1 C-0.67 0.67 -0.34 0.34 0 0 Z " transform="translate(769,152)" style="fill: #212B38;"/><path d="M0 0 C9.9 0 19.8 0 30 0 C30.00410889 2.80040771 30.00821777 5.60081543 30.01245117 8.48608398 C30.02967985 17.75817874 30.07423376 27.02999894 30.13209057 36.30192471 C30.16632188 41.9213077 30.1914646 47.54041993 30.19555664 53.15991211 C30.19984777 58.58720717 30.22837877 64.01389181 30.27343178 69.44099617 C30.28638063 71.50729881 30.29072377 73.57367459 30.28615379 75.64001274 C30.28122928 78.54379348 30.30742245 81.4458028 30.34057617 84.34936523 C30.32763771 85.61928314 30.32763771 85.61928314 30.31443787 86.91485596 C30.36108773 89.36614053 30.52120711 91.59418622 31 94 C32.32830186 97.25462502 33.87268014 100.19834401 36 103 C38.52893939 105.07392648 41.01849803 106.65751539 44 108 C47.09575343 109.19944608 49.76863177 109.97739168 53.078125 110.30078125 C58.35737297 110.32028586 63.31537996 110.17633227 68.4375 108.8125 C71.37154246 107.77276651 73.61779262 106.62699313 76.3125 105 C78.57948047 102.79213537 80.1355334 100.39741675 81.6237793 97.61010742 C82.89615891 94.71276679 83.86332076 92.00108828 84.29269791 88.85617447 C84.77997388 82.65992414 84.72147273 76.44943888 84.70703125 70.23828125 C84.72016462 68.23616544 84.73547384 66.23406283 84.75285339 64.23197937 C84.7925243 58.9959507 84.80288227 53.76027008 84.80688477 48.52410889 C84.81625008 43.16765912 84.85368478 37.81141097 84.88867188 32.45507812 C84.95306554 21.97001359 84.98385667 11.48524995 85 1 C94.57 1 104.14 1 114 1 C114.0907099 13.14466012 114.16395098 25.28909174 114.20724869 37.43401527 C114.22803929 43.07462878 114.2561998 48.7149966 114.30175781 54.35546875 C114.34552133 59.80847939 114.36920107 65.26125511 114.37950897 70.71442795 C114.38684593 72.78504504 114.40117181 74.85565066 114.42292023 76.92616653 C114.60617223 95.111191 114.60617223 95.111191 112.14355469 104.05224609 C110.56023789 108.93509502 108.56999229 113.39316966 105.75390625 117.69140625 C101.90960125 122.75150481 97.67000193 127.10409165 92.48046875 130.7890625 C87.57757198 133.84678306 82.60188334 136.51599231 77 138 C67.13995264 140.19572483 57.06313634 140.73632705 47 140 C40.26386072 139.11815118 34.13262222 137.27657032 27.9375 134.5 C22.12251263 131.38840411 17.2908012 127.48389377 12.6328125 122.8515625 C8.91659518 118.82657935 6.31213848 114.94587062 4 110 C2.17525396 105.78460088 0.78572583 101.52830152 0 97 C-0.69097994 89.53074366 -0.46743751 82.00332038 -0.390625 74.51171875 C-0.38315079 72.35554025 -0.37746344 70.19935488 -0.37347412 68.04316711 C-0.35831074 62.4091975 -0.31911031 56.77565019 -0.2746582 51.1418457 C-0.23350352 45.37652293 -0.21542023 39.61113092 -0.1953125 33.84570312 C-0.15260592 22.56358811 -0.08233342 11.28189549 0 0 Z " transform="translate(969,152)" style="fill: #202A38;"/><path d="M0 0 C5.34484875 1.47363445 10.84774911 3.01806739 15.5703125 5.984375 C15.96391968 6.85606323 15.96391968 6.85606323 16.36547852 7.74536133 C16.46687134 8.8536731 16.46687134 8.8536731 16.5703125 9.984375 C15.58227539 12.45800781 15.58227539 12.45800781 14.04296875 15.1875 C13.49833984 16.1671875 12.95371094 17.146875 12.39257812 18.15625 C11.52149414 19.67992187 11.52149414 19.67992187 10.6328125 21.234375 C10.05595703 22.265625 9.47910156 23.296875 8.88476562 24.359375 C7.45741052 26.90738081 6.01900147 29.44845714 4.5703125 31.984375 C0.45454538 31.08816743 -3.65135777 30.18517486 -7.73046875 29.1328125 C-14.10993255 27.49450662 -20.09593906 26.50326724 -26.6953125 26.6953125 C-29.28419503 26.96899437 -31.52542555 27.41512194 -33.9921875 28.234375 C-37.31348014 29.77382797 -37.31348014 29.77382797 -39.4296875 31.609375 C-40.49620524 33.88476342 -40.49620524 33.88476342 -40.7734375 36.06640625 C-40.8751123 37.59915388 -40.95937712 39.13318886 -41.0234375 40.66796875 C-40.8275 41.43238281 -40.6315625 42.19679687 -40.4296875 42.984375 C-38.33743747 45.67163879 -38.33743747 45.67163879 -35.4296875 47.984375 C-28.61594931 52.0609705 -21.5222226 55.1921479 -13.85546875 57.25 C-9.1716379 58.66797134 -4.831865 60.87158207 -0.4296875 62.984375 C0.42882813 63.36464844 1.28734375 63.74492187 2.171875 64.13671875 C6.60185523 66.17341244 10.52454786 68.47471766 14.3203125 71.546875 C16.83793499 73.89487044 18.61449986 76.05585455 20.4296875 78.9921875 C22.38131328 82.77462414 24.16975722 86.39192353 25.2109375 90.53125 C26.0239669 96.08105937 25.9430282 101.50486799 25.109375 107.05078125 C24.2361942 111.07254928 23.17199968 114.7617158 21.3515625 118.4609375 C18.85089969 122.50367572 15.87271649 125.88727951 12.4453125 129.171875 C6.58387475 134.1088578 0.0976236 137.11562509 -6.9375 140.01953125 C-12.87904592 142.02177635 -18.83428123 142.33732351 -25.0546875 142.421875 C-33.83281605 142.36939973 -42.05218464 141.21487137 -50.44677734 138.64355469 C-58.32051985 136.02608303 -65.60621223 132.73114041 -72.4296875 127.984375 C-71.98751722 125.77167354 -71.44765047 124.01695785 -70.35400391 122.03320312 C-69.69924072 121.03450195 -69.69924072 121.03450195 -69.03125 120.015625 C-68.55171875 119.27957031 -68.0721875 118.54351562 -67.578125 117.78515625 C-67.07539062 117.02589844 -66.57265625 116.26664062 -66.0546875 115.484375 C-65.5596875 114.72511719 -65.0646875 113.96585937 -64.5546875 113.18359375 C-62.27393984 109.7014897 -59.95165456 106.29774659 -57.4296875 102.984375 C-52.99619236 104.70984338 -48.73050854 106.71186507 -44.44140625 108.765625 C-40.11481132 110.51646497 -35.85629831 111.74340074 -31.21704102 112.20410156 C-28.93002851 112.321701 -26.65707324 112.35549055 -24.3671875 112.359375 C-23.2215332 112.39611328 -23.2215332 112.39611328 -22.05273438 112.43359375 C-19.77498569 112.4452845 -17.677382 112.35911953 -15.4296875 111.984375 C-12.78873053 110.89372811 -10.8093748 109.62500993 -8.4296875 107.984375 C-7.9553125 107.38625 -7.4809375 106.788125 -6.9921875 106.171875 C-6.33338446 103.798465 -6.33338446 103.798465 -5.9921875 100.546875 C-6.20875 98.7834375 -6.20875 98.7834375 -6.4296875 96.984375 C-8.52373168 94.31502713 -8.52373168 94.31502713 -11.4296875 91.984375 C-14.60476752 90.32135122 -14.60476752 90.32135122 -18.12890625 89.046875 C-18.76399612 88.79945557 -19.399086 88.55203613 -20.05342102 88.29711914 C-22.07010229 87.51365512 -24.09295471 86.74809032 -26.1171875 85.984375 C-49.17325484 77.16972345 -49.17325484 77.16972345 -56.1171875 71.671875 C-60.38593568 68.17994849 -64.23174041 64.49472635 -67.4296875 59.984375 C-69.50377453 56.10728222 -71.04136234 52.14935049 -72.4296875 47.984375 C-72.80468139 42.03495265 -72.91954352 36.02314287 -71.96875 30.125 C-70.54197877 24.85433921 -68.27617634 19.97196957 -65.34375 15.37109375 C-62.47497972 11.79391285 -59.21254493 9.27915801 -55.4140625 6.73828125 C-49.62644592 3.3369202 -43.87953638 0.81845239 -37.34375 -0.76171875 C-24.82076936 -3.00348689 -12.39515572 -2.78956795 0 0 Z " transform="translate(1177.4296875,150.015625)" style="fill: #212A38;"/><path d="M0 0 C47.52 0 95.04 0 144 0 C140.79948314 1.60025843 137.70146309 2.9016772 134.375 4.1875 C128.24679408 6.74277617 123.18492941 9.87321945 118 14 C117.12730469 14.68449219 116.25460938 15.36898438 115.35546875 16.07421875 C107.65296651 22.56459617 101.91111677 30.15922106 96.47412109 38.59277344 C92.24193929 45.50388847 88.59957417 52.74510603 85 60 C84.27522461 60.01981934 83.55044922 60.03963867 82.80371094 60.06005859 C79.45216966 60.15656336 76.10114824 60.26572343 72.75 60.375 C71.61046875 60.4059375 70.4709375 60.436875 69.296875 60.46875 C57.58715777 60.86794491 46.70486004 62.56581711 35.67578125 66.53125 C28.85543295 69.25649013 22.93798099 72.59960702 17.24609375 77.25 C13.64277511 80.60092523 10.67852514 83.8836713 8.1171875 88.09765625 C6.61141836 91.03281494 5.23647411 93.94223296 4 97 C3.43925781 98.35738281 3.43925781 98.35738281 2.8671875 99.7421875 C1.00810318 106.72631507 1.5089616 114.17389643 1.80908203 121.34814453 C2.43274886 130.01089278 5.08280695 138.03807272 8.33007812 146.04248047 C11.33870812 153.13057973 14.98080788 159.68330592 19.33081055 166.04125977 C20.47265625 167.79296875 20.47265625 167.79296875 22 171 C21.83886719 171.81210938 21.67773438 172.62421875 21.51171875 173.4609375 C21.01285156 174.29882812 20.51398437 175.13671875 20 176 C19.69392822 176.54793213 19.38785645 177.09586426 19.07250977 177.66040039 C17.98858087 179.60042928 16.86922131 181.51764244 15.75 183.4375 C8.70519888 195.80941023 4.06612061 208.11227724 1 222 C0.67 222 0.34 222 0 222 C0 148.74 0 75.48 0 0 Z " transform="translate(0,0)" style="fill: #FEFEFE;"/><path d="M0 0 C27.39 0 54.78 0 83 0 C83 9.57 83 19.14 83 29 C65.51 29 48.02 29 30 29 C30 37.25 30 45.5 30 54 C43.2 54 56.4 54 70 54 C70 63.57 70 73.14 70 83 C56.8 83 43.6 83 30 83 C30 100.49 30 117.98 30 136 C20.1 136 10.2 136 0 136 C0 91.12 0 46.24 0 0 Z " transform="translate(867,152)" style="fill: #212B38;"/><path d="M0 0 C35.64 0 71.28 0 108 0 C108 9.57 108 19.14 108 29 C95.13 29 82.26 29 69 29 C69 64.31 69 99.62 69 136 C59.1 136 49.2 136 39 136 C39 100.69 39 65.38 39 29 C26.13 29 13.26 29 0 29 C0 19.43 0 9.86 0 0 Z " transform="translate(617,152)" style="fill: #202A38;"/><path d="M0 0 C0.33 0 0.66 0 1 0 C1.09796875 0.61746094 1.1959375 1.23492187 1.296875 1.87109375 C2.38926032 8.05813817 4.07283201 13.43516415 7 19 C8.87178116 22.18288354 8.87178116 22.18288354 11 25 C12.0209375 26.4540625 12.0209375 26.4540625 13.0625 27.9375 C15.40756479 30.66864252 18.06851278 32.57511193 21.0625 34.5625 C29.57059171 39.72894175 38.36375357 43.07707008 48.015625 45.421875 C54.16409666 46.61294019 59.90599536 47.04723102 66.16796875 47.03515625 C68.16072821 47.04401296 70.15348792 47.05289233 72.14624023 47.06323242 C73.51251313 47.06274219 74.87883712 47.04961998 76.24487305 47.02416992 C80.60452531 46.95172621 84.74320032 47.01218775 89 48 C90.90576172 49.63891602 90.90576172 49.63891602 92.19140625 51.6953125 C92.82798706 53.11557185 93.43329261 54.55044334 94 56 C100.70923232 66.54113126 107.82830825 76.94567244 117.42578125 85.0859375 C123.55170305 89.64087177 130.11778082 93.64394447 137.34375 96.16796875 C139.88766984 96.86623541 142.41189137 97.49294198 145 98 C145 98.33 145 98.66 145 99 C97.15 99 49.3 99 0 99 C0 66.33 0 33.66 0 0 Z " transform="translate(0,237)" style="fill: #FEFEFE;"/><path d="M0 0 C4.8725748 0.77208575 9.20021467 2.15164304 13.66015625 4.25390625 C17.90767293 6.60509573 21.49186979 9.19986619 24.8125 12.75 C28.32988407 17.08866007 30.9166107 21.82664004 33 27 C34.4001327 30.98915001 35.14435757 34.65413302 35.3359375 38.85546875 C35.44894924 45.51384709 35.53599509 52.12511723 34.3125 58.6875 C32.53032512 64.39045961 29.91055282 69.71319245 26.6953125 74.74609375 C23.91294427 78.44523308 20.77469655 81.33425385 17 84 C12.22347896 86.91340385 7.44244863 88.65943897 2 90 C-3.94794644 90.49512635 -9.89229933 90.43654766 -15.80859375 89.60546875 C-19.50465673 88.68884513 -22.51574063 87.28085697 -25.80859375 85.37109375 C-29.65543782 82.78739251 -33.01633053 80.10025252 -36.109375 76.640625 C-39.84979974 71.62142257 -42.26490031 66.4550543 -44.2734375 60.54296875 C-46.25160044 53.61939845 -46.39495006 46.8118301 -46.2734375 39.65625 C-46.05990378 34.46378638 -45.08285318 29.80198969 -43.328125 24.90234375 C-41.13264099 20.10456546 -38.4378224 15.99628722 -35 12 C-32.26371643 9.13371201 -29.4273389 6.85357692 -26.02734375 4.8203125 C-17.51100313 0.32420975 -9.56054358 -0.70446111 0 0 Z " transform="translate(1351,175)" style="fill: #FDFDFD;"/><path d="M0 0 C4.18579173 -0.00794687 8.11078966 0.12342125 12.21484375 0.99609375 C19.52017725 3.5220412 26.10947348 7.39126273 32.2734375 12.01953125 C38.89119617 17.53433014 44.24143678 24.16729467 49 31.3125 C52.23401058 36.51352739 55.26369206 41.83327468 58 47.3125 C58 47.9725 58 48.6325 58 49.3125 C56.17855469 49.51552734 56.17855469 49.51552734 54.3203125 49.72265625 C36.02242945 51.95013014 17.3590945 55.86262823 0.515625 63.5625 C-0.31453125 63.81 -1.1446875 64.0575 -2 64.3125 C-6.98074362 64.07672515 -11.42534551 62.09126348 -16.04736328 60.35986328 C-20.76663586 58.68583654 -25.58471086 57.47045215 -30.4375 56.25 C-31.43724854 55.99395996 -32.43699707 55.73791992 -33.46704102 55.47412109 C-36.30989346 54.7476272 -39.15451251 54.02859337 -42 53.3125 C-42.7321875 53.1273584 -43.464375 52.9422168 -44.21875 52.75146484 C-47.47661007 51.92796846 -50.73632018 51.11262796 -54 50.3125 C-52.44342885 44.0862154 -49.84085665 38.92833022 -46.5 33.5 C-41.76139681 25.97910576 -36.31257605 19.54665895 -30 13.3125 C-29.39671875 12.69890625 -28.7934375 12.0853125 -28.171875 11.453125 C-23.91238774 7.44176321 -18.91022845 5.04447594 -13.671875 2.51171875 C-9.03430592 0.43023672 -5.01774155 0.04464086 0 0 Z " transform="translate(156,11.6875)" style="fill: #FEFDFD;"/><path d="M0 0 C0.66 0 1.32 0 2 0 C8.85480553 11.31804558 14.25946781 22.57588982 17.63671875 35.421875 C18.6354781 42.50984456 18.55105834 49.87377964 18 57 C17.18641906 61.32360158 15.97114385 65.06995544 14 69 C11.37794807 73.48386395 8.06169725 77.11464536 4.3125 80.6875 C0.44144096 83.93062008 -3.64129148 85.99849987 -8.28515625 87.94140625 C-9.18105469 88.29074219 -10.07695312 88.64007813 -11 89 C-12.11181641 89.44666016 -12.11181641 89.44666016 -13.24609375 89.90234375 C-19.61594 92.2515898 -26.23028815 93.55830691 -33 94 C-40.99835292 94.22247251 -49.00062061 94.12714504 -57 94 C-55.41986503 88.0101704 -53.75845563 82.13296787 -51.625 76.3125 C-49.92225604 71.57442986 -48.74726911 66.91329537 -47.8828125 61.94921875 C-47.69251465 60.88598389 -47.5022168 59.82274902 -47.30615234 58.72729492 C-46.94293279 56.61956916 -46.61105998 54.50613446 -46.31494141 52.38793945 C-45.79246729 49.38088179 -45.20993446 46.80483592 -44 44 C-41.30989232 41.14767139 -38.26389288 39.14302969 -35 37 C-33.85337531 36.04109013 -32.72705348 35.05703432 -31.62890625 34.04296875 C-31.12262695 33.57560303 -30.61634766 33.1082373 -30.09472656 32.62670898 C-29.5890918 32.15177002 -29.08345703 31.67683105 -28.5625 31.1875 C-28.01174805 30.67324463 -27.46099609 30.15898926 -26.89355469 29.62915039 C-17.63590965 20.94374253 -8.69428139 12.11127853 -1.37109375 1.6796875 C-0.91863281 1.12539062 -0.46617187 0.57109375 0 0 Z " transform="translate(279,177)" style="fill: #FEFDFD;"/><path d="M0 0 C10.23 0 20.46 0 31 0 C31 44.88 31 89.76 31 136 C20.77 136 10.54 136 0 136 C0 91.12 0 46.24 0 0 Z " transform="translate(1223,152)" style="fill: #26303D;"/><path d="M0 0 C3.92284389 3.80746613 7.46781154 7.83147835 11 12 C19.81377612 22.26296188 29.03877076 31.81186879 39.7578125 40.09765625 C42 42 42 42 43.69921875 43.703125 C45 46 45 46 45.88671875 49.88671875 C46.15930097 51.4860256 46.42582254 53.08637278 46.6875 54.6875 C48.78732031 66.41259725 52.49639906 77.53859141 56.32910156 88.79541016 C57 91 57 91 57 93 C31.08710812 93.59976426 31.08710812 93.59976426 20.2265625 90.9765625 C14.08047522 89.11636659 8.28606904 86.96705355 2.76171875 83.66015625 C-1.71223372 80.52404588 -5.65203105 76.7606801 -9.16796875 72.5859375 C-11.84578869 68.80615755 -13.64680418 65.08976107 -15.15234375 60.7109375 C-16.63835166 54.2053729 -16.73611482 47.86945457 -16.23046875 41.23144531 C-15.37822712 32.97986854 -13.1518561 25.49173142 -9.8359375 17.91796875 C-3.60853636 4.2887397 -3.60853636 4.2887397 0 0 Z " transform="translate(25,177)" style="fill: #FEFDFD;"/><path d="M0 0 C11.79466662 -0.43924965 23.54042323 -0.0824587 35 3 C42.09336776 5.40665206 48.67132947 8.72152731 54.84765625 12.94921875 C57.97740978 15.52512608 60.42052803 18.20007673 62.796875 21.48046875 C65.02789518 24.99166956 66.74773642 28.2905625 68.14453125 32.21875 C69.16136275 36.71323811 69.293739 40.84854951 69.25 45.4375 C69.26160156 46.64889648 69.26160156 46.64889648 69.2734375 47.88476562 C69.25238611 54.41595822 68.01638786 59.87598616 65.9921875 66.09765625 C62.32171033 75.83853798 57.7851249 85.32231265 52 94 C51.34 94 50.68 94 50 94 C48.58325195 92.56640625 48.58325195 92.56640625 46.92578125 90.5625 C42.88994708 85.82010784 38.58859523 81.40249492 34.1875 77 C33.39722412 76.20110352 32.60694824 75.40220703 31.79272461 74.57910156 C27.74294417 70.53389339 23.79389984 66.96009429 19.0625 63.75 C16.78515625 62.0390625 16.78515625 62.0390625 15 60 C13.29861917 55.392326 12.64535249 50.85022733 12 46 C10.79632393 39.36344055 9.31057204 32.79537627 7.6875 26.25 C7.36809448 24.96053467 7.36809448 24.96053467 7.04223633 23.64501953 C5.38067643 17.11672456 3.32256233 10.84362454 0.91796875 4.5546875 C0.61503906 3.71164063 0.31210938 2.86859375 0 2 C0 1.34 0 0.68 0 0 Z " transform="translate(222,65)" style="fill: #FEFDFD;"/><path d="M0 0 C24.05699482 0 24.05699482 0 33.6171875 2.75390625 C37.36511484 4.09615704 40.48984496 5.62837844 43.71875 7.98046875 C46.99854546 10.78276458 50.00458985 13.54185864 52.4453125 17.1171875 C54.60350135 21.2257396 55.88784252 25.49529493 57 30 C57.59211947 36.95396124 57.5848426 43.8398562 56.3125 50.71484375 C54.93019636 55.65081967 53.21877309 60.15568256 50.375 64.4375 C47.99683617 67.26864742 45.42458022 69.26241153 42.3125 71.25 C37.0522808 74.33890247 31.94897501 75.83673636 26 78 C17.42 78 8.84 78 0 78 C0 52.26 0 26.52 0 0 Z " transform="translate(400,181)" style="fill: #FDFDFD;"/><path d="M0 0 C-0.65813106 3.60726087 -1.57986464 7.01982989 -2.70703125 10.5078125 C-7.61240926 25.88833195 -7.61240926 25.88833195 -11.4375 41.5625 C-11.66433472 42.65618896 -11.66433472 42.65618896 -11.89575195 43.77197266 C-12.615672 47.44607672 -13.06735566 51.00165241 -13.3125 54.73828125 C-13.55053711 57.00268555 -13.55053711 57.00268555 -14 59 C-16.00390625 61.6015625 -16.00390625 61.6015625 -18.5625 63.625 C-19.93341797 64.75228516 -19.93341797 64.75228516 -21.33203125 65.90234375 C-22.65267578 66.94068359 -22.65267578 66.94068359 -24 68 C-31.25402474 74.06198059 -37.84610228 80.75373199 -44.48632812 87.47021484 C-46.31717398 89.32055035 -48.15710709 91.16166871 -50 93 C-56.8076489 82.59846539 -62.4399261 71.9959012 -66 60 C-67.49081235 51.81495927 -67.70997095 43.28944288 -67 35 C-66.36301165 32.09897305 -65.56338702 29.75970613 -64.26171875 27.1015625 C-61.33596269 22.22832175 -58.12147886 17.8721108 -54 13.9375 C-48.61486229 9.61289269 -42.37656706 6.57481102 -36 4 C-24.02461097 -0.2405064 -12.6091621 -0.46509204 0 0 Z " transform="translate(82,66)" style="fill: #FEFDFD;"/><path d="M0 0 C3.42687255 0.38681554 6.49067528 1.45171687 9.71875 2.63671875 C25.62292144 8.30244041 41.43229846 11.92192531 58 15 C56.94533855 18.37996399 55.9853867 21.02241483 54.0390625 24.0078125 C41.34320367 40.40149429 41.34320367 40.40149429 34 46 C28.06859023 49.7108462 21.63569521 52.7881016 15 55 C8.26919306 55.44243451 1.4664348 55.66858755 -5.1796875 54.38671875 C-10.19607075 52.73640136 -14.36100188 50.25664986 -18.6875 47.25 C-27.30082061 40.58870672 -33.61763594 33.15025576 -39.80078125 24.26953125 C-43.60513186 18.61368496 -43.60513186 18.61368496 -45 16 C-45 15.01 -45 14.02 -45 13 C-44.01386719 12.81566406 -43.02773437 12.63132812 -42.01171875 12.44140625 C-30.70689566 10.18584741 -19.97890589 6.80476098 -9.12963867 2.91040039 C-8.0182251 2.52102295 -6.90681152 2.13164551 -5.76171875 1.73046875 C-4.77131592 1.37364014 -3.78091309 1.01681152 -2.76049805 0.64916992 C-1.39405151 0.32783081 -1.39405151 0.32783081 0 0 Z " transform="translate(151,269)" style="fill: #FEFDFD;"/><path d="M0 0 C3.55112875 8.13945027 6.5489263 16.31583162 9.125 24.8125 C9.46974365 25.94308838 9.8144873 27.07367676 10.16967773 28.23852539 C15.15202221 44.86657922 15.15202221 44.86657922 16 53 C15.67 53.99 15.34 54.98 15 56 C14.01644531 55.28457031 13.03289062 54.56914063 12.01953125 53.83203125 C-10.04422572 37.93457622 -33.02718689 24.71932446 -58 14 C-58 13.34 -58 12.68 -58 12 C-50.47694408 9.10566447 -42.9532837 6.78639649 -35.125 4.875 C-34.0736084 4.61638184 -33.0222168 4.35776367 -31.93896484 4.09130859 C-21.24724388 1.50724181 -11.04817654 -0.36569394 0 0 Z " transform="translate(217,65)" style="fill: #FEFCFA;"/><path d="M0 0 C4.62 -0.103125 9.24 -0.20625 14 -0.3125 C15.44117188 -0.35802002 16.88234375 -0.40354004 18.3671875 -0.45043945 C21.96744791 -0.48927857 25.42316693 -0.42737466 29 0 C31.49272976 0.9879989 33.39827308 2.07097608 35.53930664 3.66699219 C37.68826943 5.62810481 39.42832577 7.5481882 41 10 C42.08900348 13.55397758 42.33004121 16.91906056 42.28125 20.62109375 C42 23 42 23 41.28125 25.22265625 C40.32231277 27.29133131 39.30534287 29.13098635 38 31 C35.72608411 33.21561035 33.69181595 34.64128062 30.890625 36.09375 C27.70193669 37.09344688 25.05540537 37.20461609 21.73901367 37.18017578 C20.89701416 37.16196777 20.05501465 37.14375977 19.1875 37.125 C16.485625 37.08375 13.78375 37.0425 11 37 C11 43.27 11 49.54 11 56 C7.37 56 3.74 56 0 56 C0 37.52 0 19.04 0 0 Z " transform="translate(471,48)" style="fill: #232D3B;"/><path d="M0 0 C1.85287502 -0.07226502 3.70833878 -0.0838122 5.5625 -0.0625 C6.57441406 -0.05347656 7.58632813 -0.04445312 8.62890625 -0.03515625 C9.80259766 -0.01775391 9.80259766 -0.01775391 11 0 C13.86702796 6.31616596 16.5270803 12.69331585 19.07421875 19.14453125 C19.44352005 20.07673996 19.81282135 21.00894867 20.1933136 21.96940613 C20.96650276 23.92282904 21.73872287 25.87663577 22.51000977 27.83081055 C23.69155113 30.82275845 24.87783076 33.81279855 26.06445312 36.80273438 C26.81799416 38.70822032 27.57125919 40.61381545 28.32421875 42.51953125 C28.67836349 43.41122513 29.03250824 44.30291901 29.39738464 45.22163391 C29.72475113 46.0531749 30.05211761 46.88471588 30.3894043 47.74145508 C30.67712204 48.46931717 30.96483978 49.19717926 31.26127625 49.94709778 C32 52 32 52 33 56 C29.04 56 25.08 56 21 56 C17.875 48.3828125 17.875 48.3828125 17 46 C17 45.34 17 44.68 17 44 C9.08 44 1.16 44 -7 44 C-7.33 45.98 -7.66 47.96 -8 50 C-8.93942486 52.02915769 -9.92598385 54.03875312 -11 56 C-14.3 56 -17.6 56 -21 56 C-18.95856426 48.94338667 -16.63219458 42.08005855 -14.0234375 35.21484375 C-13.65272125 34.23254288 -13.282005 33.250242 -12.90005493 32.23817444 C-12.12349677 30.18297962 -11.34526823 28.12841523 -10.56542969 26.07446289 C-9.36707673 22.91662099 -8.17538236 19.75632181 -6.984375 16.59570312 C-6.22695397 14.59360186 -5.46915527 12.59164342 -4.7109375 10.58984375 C-4.1750148 9.16816139 -4.1750148 9.16816139 -3.62826538 7.71775818 C-3.2976712 6.84917679 -2.96707703 5.9805954 -2.62646484 5.08569336 C-2.19036392 3.9351371 -2.19036392 3.9351371 -1.74545288 2.76133728 C-1.49945343 2.18009598 -1.25345398 1.59885468 -1 1 C-0.67 0.67 -0.34 0.34 0 0 Z " transform="translate(392,48)" style="fill: #232D3A;"/><path d="M0 0 C1.85287502 -0.07226502 3.70833878 -0.0838122 5.5625 -0.0625 C6.57441406 -0.05347656 7.58632813 -0.04445312 8.62890625 -0.03515625 C9.80259766 -0.01775391 9.80259766 -0.01775391 11 0 C16.67997037 13.7876963 22.29588175 27.59675075 27.6875 41.5 C28.1211084 42.60843262 28.5547168 43.71686523 29.00146484 44.85888672 C29.39672363 45.8851416 29.79198242 46.91139648 30.19921875 47.96875 C30.54815186 48.87044922 30.89708496 49.77214844 31.2565918 50.70117188 C32 53 32 53 32 56 C28.37 56 24.74 56 21 56 C17.875 49.26171875 17.875 49.26171875 17 47 C17 46.01 17 45.02 17 44 C9.08 44 1.16 44 -7 44 C-7.99 47.3 -8.98 50.6 -10 54 C-10.33 54.66 -10.66 55.32 -11 56 C-14.63 56 -18.26 56 -22 56 C-11.95210656 28.63812519 -11.95210656 28.63812519 -7.3125 17.25 C-5.46113164 12.6656593 -3.72015344 8.04196157 -1.98046875 3.4140625 C-1.65691406 2.61742187 -1.33335937 1.82078125 -1 1 C-0.67 0.67 -0.34 0.34 0 0 Z " transform="translate(571,48)" style="fill: #232D3A;"/><path d="M0 0 C3.63 0 7.26 0 11 0 C11 7.59 11 15.18 11 23 C18.26 23 25.52 23 33 23 C33 15.41 33 7.82 33 0 C36.63 0 40.26 0 44 0 C44 18.48 44 36.96 44 56 C40.37 56 36.74 56 33 56 C33 48.41 33 40.82 33 33 C25.74 33 18.48 33 11 33 C11 40.92 11 48.84 11 57 C7.37 57 3.74 57 0 57 C0 38.19 0 19.38 0 0 Z " transform="translate(743,48)" style="fill: #242D3B;"/><path d="M0 0 C3.61338427 -0.17982628 6.88543616 -0.03480598 10.4140625 0.80078125 C13.07634151 1.73196359 15.39021819 2.75876146 17.82421875 4.1875 C20.79093272 6.61658871 23.45212005 9.17128051 25.82421875 12.1875 C26.31921875 13.6725 26.31921875 13.6725 26.82421875 15.1875 C24.49692427 16.66443688 22.30925786 18.02566353 19.82421875 19.1875 C19.12296875 19.208125 18.42171875 19.22875 17.69921875 19.25 C14.94839925 17.69120228 13.02323815 15.44149488 10.82421875 13.1875 C8.95460482 11.99222728 8.95460482 11.99222728 6.82421875 11.1875 C3.76879352 10.7097426 0.88614151 10.76681844 -2.17578125 11.1875 C-5.58304588 12.59788912 -5.58304588 12.59788912 -8.17578125 15.1875 C-10.48810885 17.71310027 -10.48810885 17.71310027 -11.48046875 19.8046875 C-12.80572798 24.34630619 -12.69781369 28.88177224 -12.55859375 33.578125 C-12.2840733 37.05052087 -12.2840733 37.05052087 -11.48046875 39.796875 C-10.55995258 41.85449937 -9.60833767 43.45147368 -8.17578125 45.1875 C-7.28890625 46.0125 -6.40203125 46.8375 -5.48828125 47.6875 C-2.44022579 49.24537418 -2.44022579 49.24537418 0 49.52734375 C2.35195853 49.62616554 4.49583071 49.53089536 6.82421875 49.1875 C10.10829533 48.12897258 10.10829533 48.12897258 12.82421875 46.1875 C15.63778767 43.62552877 15.63778767 43.62552877 17.82421875 41.1875 C22.27921875 43.1675 22.27921875 43.1675 26.82421875 45.1875 C26.32421875 47.25 26.32421875 47.25 24.82421875 50.1875 C21.4969173 53.7485697 17.83411792 56.56136251 13.69921875 59.125 C10.21249499 60.39362489 6.69894174 60.53203871 3.01171875 60.6875 C-0.55899863 60.59652631 -3.62966551 60.34733875 -7.05859375 59.34375 C-10.51275013 57.78040094 -13.32034679 55.91602029 -16.203125 53.4609375 C-18.84168739 50.74985648 -20.75152452 48.00579934 -22.4921875 44.6484375 C-24.05905447 40.85956755 -25.03805524 37.27226985 -25.5546875 33.203125 C-25.72187521 29.03961163 -25.435042 25.29008646 -24.48046875 21.23046875 C-23.2978784 17.59822696 -21.91443084 14.34355217 -19.85546875 11.12109375 C-17.86193803 8.59922292 -15.75243446 6.62253896 -13.1875 4.6875 C-10.47064067 2.88649344 -7.88770821 1.43105396 -4.80078125 0.375 C-3.19972537 0.26063887 -1.5992079 0.13781325 0 0 Z " transform="translate(669.17578125,45.8125)" style="fill: #252F3C;"/><path d="M0 0 C10.89 0 21.78 0 33 0 C33 3.3 33 6.6 33 10 C25.74 10 18.48 10 11 10 C11 14.29 11 18.58 11 23 C16.61 23 22.22 23 28 23 C28 26.3 28 29.6 28 33 C22.39 33 16.78 33 11 33 C11 37.29 11 41.58 11 46 C18.26 46 25.52 46 33 46 C33 49.3 33 52.6 33 56 C22.11 56 11.22 56 0 56 C0 37.52 0 19.04 0 0 Z " transform="translate(837,48)" style="fill: #202A38;"/><path d="M0 0 C15.87823071 0.62267571 31.01051718 5.01712015 46 10 C46 10.66 46 11.32 46 12 C45.29206299 12.3309668 44.58412598 12.66193359 43.85473633 13.00292969 C31.50132779 18.80197746 19.21762763 24.63792603 7.375 31.4375 C6.55491455 31.90833008 5.7348291 32.37916016 4.88989258 32.86425781 C-0.54736852 36.0392189 -5.79746558 39.45493074 -11 43 C-11.53979492 41.22827148 -11.53979492 41.22827148 -12 39 C-11.52855215 36.29568257 -10.98357951 33.71620739 -10.3125 31.0625 C-10.12751953 30.30904297 -9.94253906 29.55558594 -9.75195312 28.77929688 C-7.27511935 18.86356574 -4.47710891 9.21617632 0 0 Z " transform="translate(99,67)" style="fill: #FEFCFB;"/><path d="M0 0 C5.83841058 4.13424685 10.98089109 8.65961597 16 13.75 C17.04111938 14.8023584 17.04111938 14.8023584 18.10327148 15.87597656 C29.66388474 27.67944274 29.66388474 27.67944274 32 32 C31.98066406 32.94746094 31.98066406 32.94746094 31.9609375 33.9140625 C29.67290923 38.88075802 25.54276658 42.89456709 21.91162109 46.93603516 C15.53350195 53.82244885 8.9486327 60.6856779 2 67 C1.67 67 1.34 67 1 67 C1.00222061 66.3766124 1.00444122 65.75322479 1.00672913 65.11094666 C1.02890278 58.60562718 1.04395697 52.1003185 1.05493164 45.5949707 C1.05995129 43.16918501 1.06676837 40.74340234 1.07543945 38.31762695 C1.0876088 34.82502498 1.0932521 31.33246311 1.09765625 27.83984375 C1.10281754 26.76041 1.10797882 25.68097626 1.11329651 24.5688324 C1.11368953 19.25851853 0.89443058 14.23381644 0 9 C-0.11061655 5.99565451 -0.04623471 3.00525583 0 0 Z " transform="translate(238,130)" style="fill: #FEFDFB;"/><path d="M0 0 C0.66 0 1.32 0 2 0 C2 21.12 2 42.24 2 64 C-2 62 -2 62 -4.91796875 59.34765625 C-6.01451177 58.25931262 -7.10403662 57.16386532 -8.1875 56.0625 C-8.75976318 55.48564453 -9.33202637 54.90878906 -9.92163086 54.31445312 C-14.97988104 49.14918378 -19.55135214 43.70011553 -24 38 C-24.76183594 37.175 -25.52367187 36.35 -26.30859375 35.5 C-26.86675781 34.675 -27.42492188 33.85 -28 33 C-28.02320313 32.19304687 -28.04640625 31.38609375 -28.0703125 30.5546875 C-27 28 -27 28 -24.8046875 25.1953125 C-23.83895047 24.16165365 -22.86157142 23.13879261 -21.875 22.125 C-21.35309082 21.57561768 -20.83118164 21.02623535 -20.29345703 20.46020508 C-18.54154775 18.62754493 -16.77241679 16.81282567 -15 15 C-14.00806641 13.97737061 -14.00806641 13.97737061 -12.99609375 12.93408203 C-10.96395864 10.84362426 -8.92207181 8.763327 -6.875 6.6875 C-6.2238623 6.02314941 -5.57272461 5.35879883 -4.90185547 4.67431641 C-4.29229004 4.06378418 -3.68272461 3.45325195 -3.0546875 2.82421875 C-2.51312012 2.27854248 -1.97155273 1.73286621 -1.41357422 1.1706543 C-0.94709473 0.78433838 -0.48061523 0.39802246 0 0 Z " transform="translate(64,132)" style="fill: #FEFBFA;"/><path d="M0 0 C0.495 1.485 0.495 1.485 1 3 C-0.66203347 11.87232573 -3.75366383 20.56310796 -6.5625 29.125 C-6.85511719 30.02524902 -7.14773437 30.92549805 -7.44921875 31.85302734 C-8.60748693 35.3154405 -9.88918752 38.71566444 -11.21484375 42.1171875 C-11.80394531 42.73851562 -12.39304688 43.35984375 -13 44 C-16.82351349 44.50264166 -19.86239035 44.18932144 -23.64355469 43.56005859 C-26.56860702 42.99076331 -29.46993251 42.35102654 -32.375 41.6875 C-33.35210937 41.47416016 -34.32921875 41.26082031 -35.3359375 41.04101562 C-41.6500909 39.63460513 -47.83191859 37.94794885 -54 36 C-54 35.01 -54 34.02 -54 33 C-53.04222656 32.53851563 -52.08445313 32.07703125 -51.09765625 31.6015625 C-33.09900498 22.82859185 -15.52104744 12.7367374 0 0 Z " transform="translate(230,225)" style="fill: #FEFBFA;"/><path d="M0 0 C1.94659477 2.30691578 3.17254032 4.39256548 4.39453125 7.17285156 C4.86246094 8.3997168 5.33039062 9.62658203 5.8125 10.890625 C6.19498901 11.88579132 6.19498901 11.88579132 6.58520508 12.90106201 C7.39611336 15.01514483 8.19814603 17.13246867 9 19.25 C9.53848532 20.657773 10.07754246 22.0653274 10.6171875 23.47265625 C11.64304109 26.15064246 12.66232076 28.83097236 13.67578125 31.51367188 C14.45170212 33.55647239 15.2366165 35.59597228 16.04296875 37.62695312 C16.74294406 39.39989528 17.3791545 41.19782348 18 43 C18 44.32 18 45.64 18 47 C6.45 47 -5.1 47 -17 47 C-16.33947707 43.69738533 -15.75830776 41.0593372 -14.6171875 37.98828125 C-14.34028076 37.23885254 -14.06337402 36.48942383 -13.77807617 35.71728516 C-13.48006104 34.92370605 -13.1820459 34.13012695 -12.875 33.3125 C-12.56731689 32.48540527 -12.25963379 31.65831055 -11.94262695 30.80615234 C-8.08873151 20.48932999 -4.10746184 10.2185636 0 0 Z " transform="translate(782,192)" style="fill: #F8F9F9;"/><path d="M0 0 C1.59703642 1.81541107 2.83735091 3.64732807 3.85043335 5.84399414 C4.78884899 8.14562752 5.68865094 10.4587616 6.57421875 12.78125 C6.90291458 13.63174927 7.23161041 14.48224854 7.57026672 15.35852051 C8.26165755 17.15268191 8.94983743 18.94808354 9.63500977 20.74462891 C10.68511462 23.49375518 11.74906052 26.2372364 12.81445312 28.98046875 C13.48521448 30.72624018 14.15516412 32.47232376 14.82421875 34.21875 C15.14291428 35.03863403 15.4616098 35.85851807 15.78996277 36.70324707 C16.08059097 37.47084351 16.37121918 38.23843994 16.6706543 39.02929688 C16.92807907 39.70118042 17.18550385 40.37306396 17.45072937 41.06530762 C18 43 18 43 18 47 C6.45 47 -5.1 47 -17 47 C-13.62633046 35.75443487 -13.62633046 35.75443487 -12.16796875 31.9921875 C-11.84699219 31.15776123 -11.52601563 30.32333496 -11.1953125 29.46362305 C-10.86273437 28.60937744 -10.53015625 27.75513184 -10.1875 26.875 C-9.48270661 25.04571401 -8.77828392 23.21628515 -8.07421875 21.38671875 C-7.55287354 20.03586182 -7.55287354 20.03586182 -7.02099609 18.65771484 C-5.49139802 14.67607815 -3.99334479 10.68284828 -2.5 6.6875 C-2.24500732 6.00606934 -1.99001465 5.32463867 -1.72729492 4.62255859 C-1.15101303 3.08189898 -0.57541657 1.54098301 0 0 Z " transform="translate(556,192)" style="fill: #F8F9F9;"/><path d="M0 0 C5.40678408 3.14614411 10.81211442 6.29411763 16.1953125 9.48046875 C24.05782687 14.13123517 31.93131893 18.71296859 40 23 C39.34 23.66 38.68 24.32 38 25 C34.31995568 26.2760798 30.52220652 27.16001694 26.75 28.125 C25.71230469 28.40214844 24.67460938 28.67929687 23.60546875 28.96484375 C22.59613281 29.22652344 21.58679688 29.48820312 20.546875 29.7578125 C19.62745117 29.9964502 18.70802734 30.23508789 17.76074219 30.48095703 C14.78383514 31.04064083 12.02218248 31.0884297 9 31 C7.86461357 27.7118265 6.74367996 24.41889099 5.625 21.125 C5.30789062 20.2071875 4.99078125 19.289375 4.6640625 18.34375 C2.6168809 12.28750442 1.08739255 6.30002705 0 0 Z " transform="translate(89,236)" style="fill: #FEFBFB;"/><path d="M0 0 C1.65 0 3.3 0 5 0 C5.40992188 0.85464844 5.81984375 1.70929688 6.2421875 2.58984375 C6.78101563 3.69457031 7.31984375 4.79929688 7.875 5.9375 C8.67550781 7.59072266 8.67550781 7.59072266 9.4921875 9.27734375 C9.98976563 10.17582031 10.48734375 11.07429687 11 12 C11.66 12.33 12.32 12.66 13 13 C13.2475 12.154375 13.495 11.30875 13.75 10.4375 C15.13973627 6.61572526 16.91120838 3.48131937 19 0 C20.32 0 21.64 0 23 0 C23 7.59 23 15.18 23 23 C21.68 23 20.36 23 19 23 C18.67 19.04 18.34 15.08 18 11 C16.35 13.97 14.7 16.94 13 20 C12.01 20 11.02 20 10 20 C8.35 16.7 6.7 13.4 5 10 C4.67 14.29 4.34 18.58 4 23 C2.68 23 1.36 23 0 23 C0 15.41 0 7.82 0 0 Z " transform="translate(1578,152)" style="fill: #2A3441;"/><path d="M0 0 C10.546875 -0.1953125 10.546875 -0.1953125 14 0 C16.328125 0.8203125 16.328125 0.8203125 18 2 C18.99 3.485 18.99 3.485 20 5 C20.375 7.875 20.375 7.875 20 11 C18.4921875 13.67578125 18.4921875 13.67578125 16 16 C12.99011679 16.37774639 10.7166237 16.48153413 7.75 16.3125 C5.1925 16.209375 2.635 16.10625 0 16 C0 10.72 0 5.44 0 0 Z " transform="translate(482,58)" style="fill: #FAFAFB;"/><path d="M0 0 C1.30078125 1.03125 1.30078125 1.03125 3 3 C4.15462822 5.49467118 5.20080792 7.94190942 6.1875 10.5 C6.46013672 11.17675781 6.73277344 11.85351562 7.01367188 12.55078125 C7.72158234 14.34983191 8.36462574 16.17407009 9 18 C9 18.99 9 19.98 9 21 C3.72 21 -1.56 21 -7 21 C-5.875 14.25 -5.875 14.25 -4.58984375 11.1328125 C-4.32236328 10.47539063 -4.05488281 9.81796875 -3.77929688 9.140625 C-3.50150391 8.47546875 -3.22371094 7.8103125 -2.9375 7.125 C-2.65583984 6.43664062 -2.37417969 5.74828125 -2.08398438 5.0390625 C-1.39484734 3.35710091 -0.69819202 1.67822303 0 0 Z " transform="translate(575,63)" style="fill: #ECEDEE;"/><path d="M0 0 C0.66 0 1.32 0 2 0 C3.17495143 2.93425371 4.33850852 5.87289513 5.5 8.8125 C5.83386719 9.64587891 6.16773438 10.47925781 6.51171875 11.33789062 C6.82753906 12.14033203 7.14335937 12.94277344 7.46875 13.76953125 C7.76201172 14.50792236 8.05527344 15.24631348 8.35742188 16.00708008 C9 18 9 18 9 21 C3.72 21 -1.56 21 -7 21 C-6.33577702 17.67888508 -5.76292144 15.08168801 -4.58984375 12.01171875 C-4.32236328 11.30595703 -4.05488281 10.60019531 -3.77929688 9.87304688 C-3.50150391 9.15181641 -3.22371094 8.43058594 -2.9375 7.6875 C-2.51500977 6.57665039 -2.51500977 6.57665039 -2.08398438 5.44335938 C-1.39281425 3.62757345 -0.69688311 1.81360101 0 0 Z " transform="translate(396,63)" style="fill: #EDEDEE;"/><path d="M0 0 C5.94 0 11.88 0 18 0 C18 1.32 18 2.64 18 4 C15.69 4 13.38 4 11 4 C11 10.27 11 16.54 11 23 C9.68 23 8.36 23 7 23 C7 16.73 7 10.46 7 4 C4.69 4 2.38 4 0 4 C0 2.68 0 1.36 0 0 Z " transform="translate(1558,152)" style="fill: #27313F;"/></svg>